<?xml version="1.0" encoding="UTF-8"?><svg id="art" xmlns="http://www.w3.org/2000/svg" viewBox="0 0 128 128"><defs><style>.cls-1{fill:#20c997;}.cls-1,.cls-2{stroke-width:0px;}.cls-2{fill:#fff;}</style></defs><rect class="cls-1" x="0" width="128" height="128" rx="24" ry="24"/><path class="cls-2" d="M93.74,47.25c.88-1.69,1.32-3.59,1.32-5.71,0-3.21-.94-5.65-2.82-7.29-1.88-1.65-4.28-2.47-7.2-2.47h-49.58c-.33.59-.84,1.84-1.5,3.74-.67,1.9-1,3.95-1,6.15,0,3.04.79,5.26,2.38,6.66,1.58,1.4,4.26,2.09,8.01,2.09h23.41l-28.05,24.87c-2.09,1.94-3.57,3.76-4.44,5.46-.88,1.69-1.32,3.59-1.32,5.71,0,3.21.94,5.65,2.82,7.29,1.88,1.65,4.28,2.47,7.2,2.47h49.58c.33-.59.84-1.84,1.5-3.74.67-1.9,1-3.95,1-6.15,0-3.04-.79-5.26-2.38-6.66-1.58-1.4-4.26-2.09-8.01-2.09h-23.41l28.05-24.87c2.09-1.94,3.57-3.76,4.44-5.46Z"/></svg>